<svg width="249" height="247" viewBox="0 0 249 247" fill="none" xmlns="http://www.w3.org/2000/svg">
<rect width="249" height="247" fill="#222222"/>
<path d="M216.9 183.197L166.195 164.709L166.081 164.666C163.418 163.66 160.627 162.894 157.764 162.384C154.988 161.887 152.14 161.618 149.221 161.618C148.994 161.618 148.754 161.618 148.527 161.632C144.334 161.689 140.267 162.284 136.4 163.348C136.385 163.348 136.371 163.362 136.357 163.362C135.337 163.645 134.331 163.957 133.34 164.312C131.653 164.794 129.925 165.191 128.168 165.503C126.241 165.857 124.301 166.112 122.317 166.254C120.871 166.368 119.426 166.424 117.953 166.424C86.6561 166.424 61.2823 141.031 61.2823 109.712C61.2823 78.393 86.6561 53 117.953 53C141.457 53 161.632 67.334 170.204 87.736C171.366 90.487 172.315 93.365 173.038 96.328C172.697 100.78 169.877 104.551 165.953 106.238C164.522 106.848 162.964 107.188 161.32 107.188C157.538 107.188 154.166 105.402 152.027 102.609C151.488 100 150.667 97.491 149.575 95.137C144.135 83.256 132.135 75.004 118.223 75.004C99.1662 75.004 83.724 90.458 83.724 109.528C83.724 128.214 98.5576 143.428 117.075 144.037C117.458 144.051 117.84 144.051 118.223 144.051C122.869 144.051 127.318 143.13 131.37 141.457C131.639 141.343 131.922 141.23 132.192 141.102C134.388 140.209 136.811 139.713 139.375 139.67C143.582 139.599 147.479 140.961 150.609 143.314H150.624L151.771 144.009L159.309 148.532L216.9 183.197Z" fill="white"/>
<path d="M199.05 164.765L163.658 143.286L145.552 132.312L144.9 131.915C144.816 131.858 144.716 131.801 144.631 131.759C141.911 130.228 138.765 129.349 135.422 129.349C132.943 129.349 130.563 129.831 128.395 130.71C128.366 130.724 128.353 130.724 128.324 130.738C127.842 130.979 127.346 131.206 126.85 131.404C126.836 131.404 126.822 131.419 126.808 131.419C126.695 131.461 126.581 131.518 126.468 131.56C123.832 132.595 120.956 133.163 117.953 133.163C105.018 133.163 94.5475 122.671 94.5475 109.74C94.5475 96.8101 105.032 86.3181 117.953 86.3181C124.824 86.3181 131.002 89.2811 135.281 93.9891C137.476 96.4131 139.176 99.3051 140.21 102.481C139.517 105.827 136.555 108.323 133.013 108.323C131.724 108.323 130.52 107.996 129.457 107.401C128.933 104.821 127.573 102.538 125.66 100.879C123.592 99.0641 120.886 97.9731 117.939 97.9731C111.45 97.9731 106.194 103.247 106.194 109.726C106.194 116.22 111.45 121.494 117.939 121.494C120.475 121.494 122.813 120.686 124.739 119.325C124.867 119.24 124.994 119.14 125.108 119.055C125.93 118.432 126.893 117.964 127.942 117.737C128.083 117.708 128.211 117.68 128.366 117.652C128.409 117.638 128.465 117.638 128.508 117.623C128.607 117.609 128.707 117.595 128.791 117.595C128.919 117.581 129.046 117.567 129.174 117.567C129.302 117.552 129.429 117.552 129.556 117.552C130.648 117.567 131.682 117.794 132.616 118.219C132.744 118.29 132.872 118.346 132.999 118.417C133.013 118.417 133.013 118.417 133.028 118.432L133.056 118.446L134.458 119.438L134.487 119.467L165.188 141.031L199.05 164.765Z" fill="white"/>
<path d="M136.504 195.335H143.566L144.94 197.849H136.337C135.39 197.849 134.608 197.493 134.063 196.782C133.707 196.331 133.541 195.833 133.541 195.288V183.359H136.527V195.335H136.504Z" fill="#0D81FD"/>
<path d="M154.63 195.924H148.225L149.797 193.448H153.739L151.228 186.442L147.145 197.816H143.979L148.272 185.858C148.929 184.199 149.914 183.382 151.228 183.359C152.566 183.382 153.551 184.223 154.16 185.881L158.477 197.839H155.31L154.63 195.924Z" fill="#0D81FD"/>
<path d="M169.538 190.489C170.8 191.119 171.539 192.029 171.778 193.195C171.825 193.405 171.848 193.615 171.848 193.825C171.848 194.992 171.325 195.972 170.253 196.718C169.205 197.465 167.846 197.838 166.178 197.838H159.318V186.08C159.318 185.216 159.698 184.563 160.461 184.05C160.985 183.723 161.533 183.56 162.128 183.56H166.178C168.013 183.56 169.371 184.143 170.253 185.286C170.776 185.94 171.038 186.686 171.038 187.526C171.038 188.669 170.586 189.626 169.681 190.372C169.61 190.442 169.561 190.466 169.538 190.489ZM164.106 189.393H166.178C167.06 189.393 167.656 189.066 167.941 188.413C168.037 188.179 168.085 187.946 168.085 187.713C168.085 187.06 167.775 186.57 167.18 186.266C166.87 186.126 166.536 186.033 166.155 186.033H162.295V195.342H166.155C167.393 195.342 168.228 195.015 168.656 194.339C168.8 194.105 168.871 193.849 168.871 193.615C168.871 193.009 168.513 192.542 167.823 192.215C167.346 191.982 166.798 191.889 166.155 191.889H162.463L164.106 189.393Z" fill="#0D81FD"/>
<path d="M172.52 187.656C172.52 186.509 173.092 185.526 174.189 184.707C175.262 183.935 176.573 183.56 178.051 183.56H180.054C181.269 183.56 182.438 183.818 183.581 184.356C184.059 184.59 184.44 184.847 184.725 185.105L182.103 187.048C181.675 186.462 181.078 186.135 180.339 186.041C180.244 186.018 180.149 186.018 180.054 186.018H178.051C177.073 186.018 176.334 186.275 175.834 186.814C175.619 187.071 175.5 187.352 175.5 187.609C175.5 188.101 176.049 188.522 177.121 188.873C177.455 188.99 178.027 189.131 178.861 189.341C180.817 189.833 182.199 190.301 182.961 190.769C184.249 191.518 184.892 192.525 184.892 193.742C184.892 194.889 184.32 195.872 183.153 196.668C182.008 197.44 180.673 197.838 179.124 197.838H177.121C175.857 197.838 174.618 197.581 173.426 197.042C172.925 196.808 172.544 196.551 172.258 196.293L174.833 194.374C175.286 194.936 175.929 195.263 176.74 195.357C176.859 195.38 177.002 195.38 177.097 195.38H179.099C180.149 195.38 180.959 195.123 181.483 194.585C181.722 194.327 181.841 194.07 181.841 193.789C181.841 193.227 181.293 192.782 180.22 192.408C180.077 192.337 179.124 192.08 177.383 191.635C175.381 191.12 174.022 190.512 173.307 189.763C172.807 189.201 172.52 188.475 172.52 187.656Z" fill="#0D81FD"/>
<path d="M88.6852 189.608V191.637C88.6852 193.006 88.268 194.202 87.4324 195.237L84.7293 193.381L82.1091 191.576L81.9946 191.495C81.9843 191.484 81.9741 191.484 81.9639 191.474C81.88 191.444 81.7961 191.424 81.702 191.424C81.6918 191.424 81.6816 191.424 81.6714 191.424C81.6611 191.424 81.6499 191.424 81.6397 191.424C81.6294 191.424 81.6192 191.424 81.6192 191.424H81.609C81.5977 191.424 81.5875 191.424 81.5671 191.434C81.4832 191.454 81.3993 191.495 81.3267 191.545C81.3165 191.555 81.3062 191.555 81.295 191.566C81.1283 191.677 80.9299 191.748 80.7213 191.748C80.168 191.748 79.719 191.312 79.719 190.764C79.719 190.217 80.168 189.781 80.7213 189.781C80.9718 189.781 81.2019 189.872 81.3789 190.024C81.5456 190.166 81.6611 190.349 81.702 190.572C81.7961 190.622 81.9004 190.653 82.0048 190.653C82.3075 190.653 82.5581 190.44 82.6205 190.166C82.5376 189.902 82.3914 189.659 82.2032 189.456C81.8381 189.061 81.3165 188.817 80.7315 188.817C79.6361 188.817 78.7382 189.689 78.7382 190.764C78.7382 191.839 79.6259 192.712 80.7315 192.712C80.982 192.712 81.2326 192.661 81.4515 192.58C81.4627 192.58 81.473 192.57 81.4832 192.57C81.5251 192.549 81.567 192.539 81.609 192.519C81.7961 192.448 81.9945 192.407 82.2032 192.407C82.4854 192.407 82.7565 192.478 82.9866 192.61C82.9968 192.61 83.0071 192.62 83.0071 192.62L83.0592 192.651L84.6046 193.563L87.4324 195.247C87.3178 195.389 87.1931 195.531 87.057 195.673L84.2282 194.01L83.5808 193.634L83.4877 193.574C83.2259 193.381 82.8925 193.259 82.5274 193.269C82.3075 193.269 82.0989 193.31 81.9117 193.391C81.8902 193.401 81.8585 193.411 81.8381 193.421C81.4934 193.563 81.1181 193.634 80.7213 193.634C80.6896 193.634 80.6589 193.634 80.6272 193.634C79.0511 193.584 77.7881 192.316 77.7881 190.754C77.7881 189.162 79.1033 187.874 80.7213 187.874C81.9117 187.874 82.9344 188.564 83.3936 189.547C83.4877 189.74 83.5603 189.953 83.6023 190.166C83.7905 190.399 84.0717 190.551 84.3949 190.551C84.5309 190.551 84.6669 190.521 84.7917 190.47C85.1261 190.328 85.3665 190.014 85.3972 189.639C85.3348 189.395 85.2509 189.152 85.1568 188.919C84.4266 187.215 82.7043 186.028 80.711 186.028C78.0489 186.028 75.8889 188.148 75.8889 190.754C75.8889 193.361 78.0489 195.48 80.711 195.48C80.8358 195.48 80.9616 195.47 81.0864 195.47C81.2541 195.46 81.4208 195.44 81.5875 195.409C81.7338 195.389 81.88 195.348 82.0263 195.308C82.1091 195.277 82.1929 195.257 82.287 195.227C82.6102 195.135 82.9651 195.085 83.32 195.085C83.3415 195.085 83.3619 195.085 83.3824 195.085C83.633 195.085 83.8733 195.105 84.1136 195.146C84.354 195.186 84.5933 195.247 84.8234 195.338H84.8337L86.7022 196.008C85.5956 196.981 84.3018 197.468 82.7882 197.468H78.6441C76.974 197.468 75.5657 196.88 74.4069 195.724C73.2901 194.578 72.7266 193.219 72.7266 191.637V189.608C72.7266 187.965 73.3321 186.566 74.5215 185.42C75.67 184.314 77.0476 183.767 78.6441 183.767H82.778C84.4368 183.767 85.8564 184.355 87.0151 185.511C88.1217 186.667 88.6852 188.036 88.6852 189.608Z" fill="white"/>
<path d="M89.124 197.839L90.249 185.855C90.3686 184.772 90.8943 184.018 91.8281 183.595C92.2106 183.43 92.6176 183.359 93.0247 183.359C93.9339 183.359 94.6283 183.689 95.0824 184.372C95.202 184.536 95.2982 184.701 95.3698 184.913L98.17 192.801L100.97 184.89C101.281 184.113 101.855 183.618 102.717 183.43C102.932 183.383 103.123 183.359 103.315 183.359C104.248 183.359 104.991 183.712 105.541 184.419C105.852 184.842 106.043 185.313 106.091 185.855L107.455 197.839H104.225L103.076 186.42L99.7736 195.744H96.5899L93.2405 186.42L92.0909 197.839" fill="white"/>
<path d="M111.746 191.972V195.339H119.451L120.863 197.835H111.578C110.621 197.835 109.855 197.482 109.28 196.799C108.921 196.328 108.73 195.834 108.73 195.316V185.968C108.73 185.121 109.113 184.438 109.878 183.944C110.405 183.614 110.955 183.426 111.578 183.426H120.863L119.451 185.921H111.746V189.453H118.829V191.972H111.746Z" fill="white"/>
<path d="M126.025 183.449L124.421 185.945H121.454V183.449H126.025ZM128.49 197.835H125.45V185.968C125.45 185.121 125.834 184.438 126.6 183.944C127.125 183.614 127.677 183.426 128.299 183.426H132.797V185.921H128.49V197.835Z" fill="white"/>
<path d="M64.0211 188.876V192.348C64.0211 193.347 64.3842 194.131 65.1329 194.726C65.6401 195.13 66.22 195.344 66.8009 195.344H68.8065C69.6277 195.344 70.3293 195.082 70.8847 194.536C70.9573 194.464 71.0299 194.393 71.078 194.322L73.7125 196.271C72.9628 196.961 71.8276 197.413 70.2802 197.698C69.7484 197.793 69.2411 197.841 68.7819 197.841H66.8009C65.1809 197.841 63.7798 197.294 62.62 196.176C61.5564 195.106 61 193.822 61 192.348V188.876C61 187.331 61.5799 186.023 62.7407 184.929C63.9004 183.883 65.2535 183.36 66.8244 183.36H68.831C70.1115 183.36 71.3439 183.622 72.5527 184.192C73.06 184.43 73.4466 184.692 73.736 184.953L71.1025 186.927C70.6433 186.356 69.9908 186.023 69.1685 185.928C69.0478 185.928 68.9272 185.904 68.8065 185.904H66.8009C65.8825 185.904 65.1574 186.285 64.601 187.069C64.2144 187.592 64.0211 188.211 64.0211 188.876Z" fill="white"/>
</svg>
